<svg height="512" viewBox="0 0 54 58" width="512" xmlns="http://www.w3.org/2000/svg"><g id="Page-1" fill="none" fill-rule="evenodd"><g id="021---Bidder" fill-rule="nonzero"><path id="Shape" d="m47 13v11.541c-.3592042-.2129452-.7511627-.3649981-1.16-.45-.9696223-.2107378-1.9830207-.0501641-2.84.45v-11.541z" fill="#cb8252"/><rect id="Rectangle-path" fill="#f9eab0" height="14" rx="1" width="18" x="36" y="1"/><path id="Shape" d="m48.91 27.84-2.5 11.68c-.371105 1.7295092-1.4864602 3.2071369-3.0480327 4.0380477-1.5615724.8309107-3.4102199.9304252-5.0519673.2719523l-8.31-3.32v16.49c0 .5522847-.4477153 1-1 1h-21c-4.41576577-.0060592-7.99394081-3.5842342-8-8v-8.7c-.00204305-3.6013635 2.14136303-6.8577676 5.45-8.28l3.22-1.37c.99459276-.4295104 2.0666287-.6507242 3.15-.65h1.18s.83 2 5 2 5-2 5-2h2.46c1.5278727-.0000217 3.0416796.2918783 4.46.86l9.16 3.66 2.01-9.36c.4672469-2.1571335 2.5912968-3.5299405 4.75-3.07.4088373.0850019.8007958.2370548 1.16.45 1.5014819.8677477 2.2727782 2.604174 1.91 4.3z" fill="#3b97d3"/><path id="Shape" d="m27 5v13c.0041557 3.7627423-2.3395071 7.1285136-5.87 8.43-3.29612 1.2227267-7.0024688.4142818-9.49-2.07-1.6926126-1.6833257-2.64297867-3.972844-2.64-6.36v-7c0-4.418278 3.581722-8 8-8h2c.8007647.01708445 1.5737931-.29349681 2.1401482-.85985183.566355-.56635503.8769362-1.33938344.8598518-2.14014817 0 0 5.0000055 0 5 5z" fill="#fdd7ad"/><path id="Shape" d="m27 8.36v4.64c.0436212-1.0736451-.3637809-2.116603-1.123589-2.876411-.759808-.7598081-1.8027659-1.16721022-2.876411-1.123589-.5522847 0-1-.44771525-1-1s.4477153-1 1-1c1.4558461-.05835569 2.8814374.42634533 4 1.36z" fill="#f9c795"/><path id="Shape" d="m23 31s-.83 2-5 2-5-2-5-2 1.42-.83 1.87-4.57c2.0174692.7599791 4.2425308.7599791 6.26 0 .45 3.74 1.87 4.57 1.87 4.57z" fill="#f9c795"/><path id="Shape" d="m30 40.52v2.16l-2.42-.97c-.332257-.1321883-.5687535-.4315923-.6204036-.7854294s.0893931-.7083511.37-.93.6581466-.2767589.9904036-.1445706z" fill="#2980ba"/><path id="Shape" d="m16 51h4.5c1.9329966 0 3.5 1.5670034 3.5 3.5 0 .9282577-.3687489 1.8184964-1.0251263 2.4748737-.6563773.6563774-1.546616 1.0251263-2.4748737 1.0251263h-4.5z" fill="#fdd7ad"/><path id="Shape" d="m25 55c.0043118 1.0825464-.3470228 2.13655-1 3h-4c1.6568542 0 3-1.3431458 3-3s-1.3431458-3-3-3h-12c-.55228475 0-1-.4477153-1-1v-8.7c0-.5522847.44771525-1 1-1s1 .4477153 1 1v7.7h11c2.7614237 0 5 2.2385763 5 5z" fill="#2980ba"/></g></g></svg>