<?xml version="1.0" encoding="iso-8859-1"?>
<!-- Generator: Adobe Illustrator 19.0.0, SVG Export Plug-In . SVG Version: 6.00 Build 0)  -->
<svg version="1.1" id="Capa_1" xmlns="http://www.w3.org/2000/svg" xmlns:xlink="http://www.w3.org/1999/xlink" x="0px" y="0px"
	 viewBox="0 0 511.998 511.998" style="enable-background:new 0 0 511.998 511.998;" xml:space="preserve">
<g>
	<g>
		<path d="M454.748,63.564C418.9,27.716,374.602,6.314,336.251,6.314c-49.685,0-87.484,56.09-110.444,103.143
			c-17.896,36.673-20.368,79.226-6.866,116.992l-84.412,84.412c-2.846,2.845-2.846,7.459,0,10.305c2.845,2.845,7.459,2.845,10.305,0
			l82.836-82.836l52.099,52.1l-13.782,13.977c-1.413,1.433-3.729,1.451-5.165,0.042l-3.867-3.798
			c-2.858-2.808-7.446-2.78-10.272,0.06l-13.558,13.632l-22.162,3.095c-3.224,0.45-5.758,2.984-6.208,6.208l-3.435,24.592
			c-0.022,0.154-0.038,0.308-0.05,0.462l-13.111,13.111c-0.155,0.012-0.309,0.028-0.463,0.05l-24.591,3.435
			c-3.224,0.45-5.758,2.984-6.208,6.208l-3.435,24.592c-0.022,0.154-0.038,0.308-0.05,0.463l-13.111,13.111
			c-0.154,0.012-0.308,0.028-0.462,0.05l-24.591,3.435c-3.224,0.45-5.758,2.984-6.208,6.208l-3.435,24.592
			c-0.022,0.154-0.038,0.308-0.05,0.462l-13.111,13.111c-0.155,0.012-0.308,0.028-0.462,0.05l-24.592,3.435
			c-3.179,0.444-5.693,2.916-6.19,6.087l-3.406,21.7l-39.262,2.244c-0.158,0.009-0.316,0.023-0.473,0.043
			c-1.21,0.147-2.052-0.413-2.444-0.762c-0.358-0.319-0.936-0.986-1.029-2.031l4.949-39.754c0.036-0.285,0.054-0.571,0.056-0.857
			c0.005-0.824,0.328-1.598,0.91-2.18l99.438-99.438c2.846-2.845,2.846-7.459,0-10.305c-2.845-2.845-7.459-2.845-10.305,0
			l-99.438,99.438c-3.197,3.196-5.022,7.411-5.169,11.914l-4.971,39.931c-0.036,0.285-0.054,0.572-0.056,0.859
			c-0.029,5.082,2.131,9.933,5.928,13.311c3.255,2.896,7.445,4.472,11.752,4.472c0.628,0,1.259-0.034,1.89-0.102l40.428-2.314
			c0.158-0.009,0.315-0.023,0.472-0.043c6.455-0.793,11.417-6.146,11.784-12.582l2.503-15.948l18.859-2.634
			c3.334-0.167,6.449-1.547,8.821-3.921l13.733-13.732c2.372-2.373,3.752-5.487,3.92-8.819l2.621-18.765l18.764-2.62
			c3.333-0.167,6.447-1.547,8.82-3.921l13.731-13.731c2.373-2.373,3.753-5.487,3.921-8.821l2.621-18.764l18.764-2.621
			c3.333-0.167,6.447-1.547,8.821-3.921l13.731-13.731c2.373-2.373,3.753-5.487,3.921-8.821l2.621-18.764l19.144-2.674
			c1.576-0.22,3.036-0.95,4.158-2.078l10.246-10.301c7.193,5.781,17.779,5.288,24.39-1.418l15.168-15.383
			c16.172,5.826,33.223,8.724,50.325,8.723c22.925,0,45.934-5.194,66.999-15.474c10.663-5.203,20.725-10.651,29.908-16.192
			c3.445-2.079,4.553-6.557,2.474-10.003c-2.079-3.445-6.557-4.553-10.003-2.474c-8.814,5.318-18.494,10.557-28.77,15.572
			c-33.559,16.376-72.532,18.492-106.924,5.806c-0.203-0.075-0.402-0.149-0.598-0.222l-30.811-30.811l-30.81-30.811
			c-0.074-0.196-0.148-0.395-0.222-0.598c-12.686-34.392-10.57-73.365,5.806-106.925c13.096-26.837,27.082-48.516,41.57-64.436
			c18.434-20.255,37.2-30.525,55.778-30.525c34.571,0,75.017,19.806,108.193,52.981c33.176,33.175,52.982,73.621,52.982,108.193
			c0,20.93-12.967,42.004-38.541,62.636c-3.132,2.527-3.623,7.114-1.096,10.246c2.527,3.133,7.115,3.622,10.246,1.096
			c29.168-23.533,43.96-48.423,43.96-73.977C511.998,143.71,490.596,99.412,454.748,63.564z"/>
	</g>
</g>
<g>
	<g>
		<path d="M434.115,84.197c-17.25-17.249-45.317-17.249-62.566,0c-17.249,17.25-17.249,45.316,0,62.565
			c8.625,8.625,19.954,12.937,31.283,12.937c11.329,0,22.658-4.313,31.283-12.937C451.365,129.512,451.365,101.446,434.115,84.197z
			 M423.811,136.458c-5.603,5.603-13.054,8.69-20.979,8.69c-7.924,0-15.374-3.086-20.978-8.69
			c-11.567-11.567-11.567-30.389,0-41.956c5.784-5.784,13.381-8.676,20.978-8.676c7.598,0,15.195,2.892,20.979,8.676
			C435.378,106.069,435.378,124.891,423.811,136.458z"/>
	</g>
</g>
<g>
</g>
<g>
</g>
<g>
</g>
<g>
</g>
<g>
</g>
<g>
</g>
<g>
</g>
<g>
</g>
<g>
</g>
<g>
</g>
<g>
</g>
<g>
</g>
<g>
</g>
<g>
</g>
<g>
</g>
</svg>
