<svg xmlns="http://www.w3.org/2000/svg" 
    xmlns:xlink="http://www.w3.org/1999/xlink" 
    version="1.1" x="0px" y="0px" viewBox="0 0 100 100" 
    enable-background="new 0 0 100 100" xml:space="preserve">
    <path d="M87.638,75H64.904c-4.212,0-7.708,3-8.291,7h39.315C95.347,78,91.851,75,87.638,75z"/>
    <rect x="59.158" y="54.156" transform="matrix(-0.8777 0.4792 -0.4792 -0.8777 163.7292 70.1166)" width="27.52" height="3.589"/><polygon points="46.123,33.09 68.177,21.05 69.229,20.476 67.508,17.324 43.352,30.511 45.073,33.664 "/>
<polygon points="54.668,43.749 61.984,57.148 79.837,47.4 67.224,24.296 49.369,34.043 53.383,41.395 "/>
<path d="M52.43,44.641l-12.863,7.024c0.04,0.035,0.07,0.079,0.107,0.115c0.126,0.122,0.246,0.25,0.36,0.385  c0.063,0.075,0.128,0.145,0.188,0.223c0.16,0.209,0.309,0.43,0.438,0.665c0.004,0.007,0.009,0.013,0.013,0.02  c0.173,0.317,0.305,0.644,0.413,0.975c0.018,0.056,0.027,0.113,0.043,0.169c0.058,0.2,0.121,0.398,0.154,0.601l12.868-7.024  L52.43,44.641z"/>
<path d="M9.011,73.798L37.5,58.289c0.716-0.391,1.5-1.037,1.5-1.763v-0.002c0-0.077-0.05-0.159-0.033-0.238  c0.024-0.111,0.012-0.222,0.022-0.334c0.011-0.117-0.018-0.236-0.021-0.354c-0.001-0.071-0.005-0.144-0.011-0.214  c-0.016-0.146-0.056-0.291-0.094-0.436c-0.012-0.043-0.018-0.086-0.029-0.129c-0.058-0.186-0.135-0.369-0.232-0.547  c-0.126-0.23-0.281-0.433-0.449-0.618c-0.038-0.041-0.077-0.077-0.116-0.117c-0.145-0.143-0.304-0.269-0.473-0.378  c-0.041-0.027-0.08-0.057-0.122-0.082c-0.211-0.123-0.435-0.223-0.67-0.29l-0.018-0.005c-0.252-0.07-0.516-0.107-0.784-0.107  c-0.491,0-0.979,0.125-1.414,0.363L6.145,68.549c-1.433,0.782-1.96,2.582-1.18,4.015C5.763,74.028,7.613,74.561,9.011,73.798z"/>
</svg>