<svg id="Layer_1" enable-background="new 0 0 512 512" height="512" viewBox="0 0 512 512" width="512" xmlns="http://www.w3.org/2000/svg"><g><g><path d="m350.21 219h-56.71v-71.629c14.208-7.751 26.017-19.811 33.256-34.834 1.798-3.731.23-8.214-3.501-10.012-3.729-1.797-8.213-.231-10.013 3.5-10.53 21.854-32.999 35.975-57.242 35.975-35.014 0-63.5-28.486-63.5-63.5 0-4.911.579-9.687 1.639-14.281.455 1.586.987 3.162 1.619 4.719 11.02 27.105 34.665 44.62 60.241 44.62 26.022 0 49.843-17.95 60.685-45.731.452-1.158.848-2.328 1.2-3.505 1.045 4.563 1.616 9.304 1.616 14.179 0 4.142 3.357 7.5 7.5 7.5s7.5-3.358 7.5-7.5c0-26.13-12.845-49.304-32.54-63.581-14.619-10.338-30.062-14.92-45.96-14.92-15.423 0-31.462 4.582-45.025 14.254-20.222 14.214-33.475 37.705-33.475 64.246 0 29.712 16.594 55.619 41 68.947v20.425c0 4.142 3.357 7.5 7.5 7.5s7.5-3.358 7.5-7.5v-14.173c7.132 2.138 14.681 3.302 22.5 3.302 7.718 0 15.288-1.166 22.5-3.346v121.525c0 6.005-2.342 11.655-6.594 15.907-4.251 4.251-9.9 6.593-15.906 6.593-12.406 0-22.5-10.093-22.5-22.5v-75.309c0-4.142-3.357-7.5-7.5-7.5s-7.5 3.358-7.5 7.5v19.129h-56.71c-43.721 0-79.29 35.569-79.29 79.29v134.42c0 43.721 35.569 79.29 79.29 79.29h188.42c43.721 0 79.29-35.569 79.29-79.29v-134.42c0-43.721-35.569-79.29-79.29-79.29zm-57.286-192.112c10.617 8.175 14.743 22.782 9.787 35.485-8.579 21.981-26.914 36.184-46.711 36.184-19.743 0-37.502-13.514-46.345-35.268-5.436-13.371-1.078-28.651 10.335-37.052 10.241-7.078 22.646-11.237 36.01-11.237 13.765 0 26.511 4.417 36.924 11.888zm43.516 225.352c9.958 0 18.06 8.106 18.06 18.07v115.71c0 9.964-8.102 18.07-18.06 18.07h-160.88c-9.958 0-18.06-8.106-18.06-18.07v-115.71c0-9.964 8.102-18.07 18.06-18.07h6.301v80.34c0 16.189 13.171 29.36 29.359 29.36h89.561c16.188 0 29.359-13.171 29.359-29.36v-80.34zm-117.94-18.24v41.18c0 20.678 16.822 37.5 37.5 37.5 10.013 0 19.429-3.902 26.514-10.987s10.986-16.501 10.986-26.513v-41.18h7.28c7.918 0 14.359 6.442 14.359 14.36v84.22c0 7.918-6.441 14.36-14.359 14.36h-89.56c-7.918 0-14.359-6.442-14.359-14.36v-84.22c0-7.918 6.441-14.36 14.359-14.36zm196 198.71c0 35.45-28.841 64.29-64.29 64.29h-188.42c-35.449 0-64.29-28.84-64.29-64.29v-134.42c0-35.45 28.841-64.29 64.29-64.29h23.836c-.587 1.043-1.114 2.124-1.572 3.24h-8.494c-10.901 0-20.583 5.307-26.608 13.472-21.301 5.742-36.451 25.252-36.451 47.578v134.42c0 27.179 22.111 49.29 49.29 49.29h127.209c4.143 0 7.5-3.358 7.5-7.5s-3.357-7.5-7.5-7.5h-127.21c-18.907 0-34.29-15.382-34.29-34.29v-134.42c0-11.594 5.872-22.096 15.009-28.339-.001.12-.009.239-.009.359v115.71c0 18.235 14.83 33.07 33.06 33.07h160.88c18.229 0 33.06-14.835 33.06-33.07v-115.71c0-.12-.008-.239-.009-.359 9.137 6.244 15.009 16.746 15.009 28.339v134.42c0 18.908-15.383 34.29-34.29 34.29h-29.694c-4.143 0-7.5 3.358-7.5 7.5s3.357 7.5 7.5 7.5h29.694c27.179 0 49.29-22.111 49.29-49.29v-134.42c0-22.326-15.15-41.837-36.451-47.578-6.026-8.164-15.707-13.472-26.608-13.472h-8.494c-.458-1.116-.985-2.197-1.572-3.24h23.836c35.449 0 64.29 28.84 64.29 64.29v134.42z"/><path d="m231 70.298c4.143 0 7.5-3.358 7.5-7.5v-3.399h10v3.399c0 4.142 3.357 7.5 7.5 7.5s7.5-3.358 7.5-7.5v-3.399h10v3.399c0 4.142 3.357 7.5 7.5 7.5s7.5-3.358 7.5-7.5v-21.798c0-4.142-3.357-7.5-7.5-7.5s-7.5 3.358-7.5 7.5v3.398h-10v-3.398c0-4.142-3.357-7.5-7.5-7.5s-7.5 3.358-7.5 7.5v3.398h-10v-3.398c0-4.142-3.357-7.5-7.5-7.5s-7.5 3.358-7.5 7.5v21.798c0 4.142 3.357 7.5 7.5 7.5z"/></g></g></svg>